<svg xmlns="http://www.w3.org/2000/svg" viewBox="0 0 100 100" role="img" aria-label="KiroFishing – Swiss Fishing App">
  <!-- Background circle -->
  <circle cx="50" cy="50" r="50" fill="#1a6b3c"/>

  <!-- Water waves at bottom -->
  <ellipse cx="50" cy="78" rx="38" ry="10" fill="#0d4a2a" opacity="0.5"/>
  <path d="M14 76 Q24 70 34 76 Q44 82 54 76 Q64 70 74 76 Q84 82 86 78" fill="none" stroke="#4ade80" stroke-width="2" stroke-linecap="round"/>
  <path d="M14 80 Q22 74 32 80 Q42 86 52 80 Q62 74 72 80 Q82 86 86 82" fill="none" stroke="#4ade80" stroke-width="1.5" stroke-linecap="round" opacity="0.6"/>

  <!-- Fishing rod line (from hand to water) -->
  <line x1="54" y1="32" x2="80" y2="72" stroke="#f0a500" stroke-width="1.5" stroke-linecap="round"/>

  <!-- Fisher body (torso) -->
  <rect x="42" y="46" width="14" height="16" rx="4" fill="#e8d5b0"/>

  <!-- Fisher head -->
  <circle cx="49" cy="38" r="8" fill="#f5c68c"/>

  <!-- Hat brim -->
  <ellipse cx="49" cy="31" rx="11" ry="3" fill="#1a3a2a"/>
  <!-- Hat crown -->
  <rect x="42" y="24" width="14" height="8" rx="3" fill="#1a3a2a"/>
  <!-- Hat band -->
  <rect x="42" y="29" width="14" height="2" fill="#f0a500"/>

  <!-- Fishing rod (arm extended right-up) -->
  <line x1="56" y1="52" x2="68" y2="34" stroke="#8B5E3C" stroke-width="3" stroke-linecap="round"/>

  <!-- Rod handle -->
  <rect x="55" y="50" width="4" height="8" rx="2" fill="#6b3a2a"/>

  <!-- Fish on the line (small) -->
  <g transform="translate(76, 68)">
    <!-- Fish body -->
    <ellipse cx="0" cy="0" rx="6" ry="3.5" fill="#4ade80"/>
    <!-- Fish tail -->
    <polygon points="-6,0 -10,-3 -10,3" fill="#2dd068"/>
    <!-- Fish eye -->
    <circle cx="3" cy="-0.5" r="1" fill="white"/>
    <circle cx="3.3" cy="-0.5" r="0.5" fill="#222"/>
    <!-- Fish fin -->
    <path d="M -1,-3.5 Q 1,-7 3,-3.5" fill="#2dd068"/>
  </g>

  <!-- Hook on line -->
  <path d="M80 72 Q83 72 83 76 Q83 80 79 80" fill="none" stroke="#ccc" stroke-width="1.5" stroke-linecap="round"/>
</svg>
